<?xml version="1.0" encoding="UTF-8"?><svg id="Layer_2" xmlns="http://www.w3.org/2000/svg" viewBox="0 0 355 81.1"><defs><style>.cls-1{fill:#5eedc1;}.cls-1,.cls-2,.cls-3,.cls-4{stroke-width:0px;}.cls-2{fill:#0084b0;}.cls-3{fill:#fff;}.cls-4{fill:#00bcb5;}</style></defs><g id="Content-Text"><circle class="cls-3" cx="278.77" cy="5.01" r="5.01"/><circle class="cls-3" cx="260.91" cy="5.01" r="5.01"/><path class="cls-4" d="M42.59,62.68L3.98,40.02c-4.48-2.63-5.34-8.75-1.75-12.51l8.69-9.1,38.61,22.66c4.48,2.63,5.34,8.75,1.75,12.51l-8.69,9.1Z"/><path class="cls-1" d="M30.67.07c2.43-.34,4.75.52,6.37,2.12l.13.13.04.04,6.47,6.55.04.04c.72.73,1.22,1.7,1.37,2.79s-.06,2.16-.55,3.06l-.03.05-4.42,8.07-.11.21c-1.11,1.99-3.11,3.45-5.54,3.79-1.74.24-3.42-.13-4.83-.95l-16.6-9.74L26.15,2.45l.13-.14c1.13-1.17,2.64-1.99,4.38-2.23Z"/><path class="cls-2" d="M22.84,81.02c-2.43.34-4.75-.52-6.37-2.12l-.13-.13-.04-.04-6.47-6.55-.04-.04c-.72-.73-1.22-1.7-1.37-2.79s.06-2.16.55-3.06l.03-.05,4.42-8.07.11-.21c1.11-1.99,3.11-3.45,5.54-3.79,1.74-.24,3.42.13,4.83.95l16.6,9.74-13.16,13.8-.13.14c-1.13,1.17-2.64,1.99-4.38,2.23Z"/><path class="cls-3" d="M275.84,16.23h-11.56l-19.77,48.68h10.81l4.45-10.93h20.56l4.45,10.93h10.81l-19.77-48.68ZM263.59,44.53l6.46-15.77,6.46,15.77h-12.92Z"/><path class="cls-3" d="M73.65,57.33l6.15-7.37c4.26,3.52,8.72,5.75,14.13,5.75,4.26,0,6.83-1.69,6.83-4.46v-.14c0-2.64-1.61-4.07-9.52-6.09-9.53-2.43-15.7-4.99-15.7-14.39v-.14c0-8.59,6.9-14.27,16.56-14.27,6.9,0,12.78,2.16,17.58,6.02l-5.41,7.84c-4.19-2.91-8.32-4.66-12.3-4.66s-6.08,1.83-6.08,4.12v.14c0,3.11,2.03,4.21,10.21,6.31,9.6,2.5,15.01,5.86,15.01,14.11v.14c0,9.4-7.17,14.67-17.37,14.67-7.17,0-14.4-2.5-20.08-7.57Z"/><path class="cls-3" d="M143.48,26.25h-15.14v-10.02h40.3v10.02h-15.14v38.66h-10.02V26.25Z"/><path class="cls-3" d="M185.89,16.23h21.55c6.18,0,10.98,1.74,14.17,4.93,2.71,2.71,4.17,6.53,4.17,11.12v.14c0,7.85-4.24,12.78-10.42,15.08l11.91,17.41h-12.51l-10.45-15.6h-8.41v15.6h-10.02V16.23ZM206.74,39.85c5.21,0,8.2-2.78,8.2-6.88v-.14c0-4.59-3.2-6.95-8.41-6.95h-10.63v13.97h10.84Z"/><path class="cls-3" d="M312.84,16.23h9.32l22.81,29.97v-29.97h10.03v48.68h-8.56l-23.57-30.94v30.94h-10.03V16.23Z"/></g></svg>